# xmcd
#
# Track frame offsets:
# 150
# 14898
# 29424
# 43251
# 57815
# 75693
# 91086
# 109495
#
# Disc length: 1650 seconds
#
#
# Revision: 1
# Processed by: cddbd v1.5.2PL0 Copyright (c) Steve Scherf et al.
# Submitted via: FreeRIP 2.951 
#
DISCID=67067008
DTITLE=Martina McBride - My Heart
DYEAR=2005
DGENRE=Country
TTITLE0=Born To Give My Love To You
TTITLE1=Valentine
TTITLE2=At Last
TTITLE3=In My Daughter's Eyes
TTITLE4=Together Again
TTITLE5=All The Things We've Never Done
TTITLE6=Some Say I'm Running
TTITLE7=When You Are Old
EXTD=
EXTT0=
EXTT1=
EXTT2=
EXTT3=
EXTT4=
EXTT5=
EXTT6=
EXTT7=
PLAYORDER=
